<svg width="2001" height="1785" viewBox="0 0 2001 1785" fill="none" xmlns="http://www.w3.org/2000/svg">
<path d="M263.082 1291.56L355.832 1212.35C50.6159 826.016 46.6867 446.926 355.832 76.2579L263.08 0.56791C-108.532 360.255 -65.2504 941.576 263.082 1291.56ZM482.586 1105.96L572.881 1022.1C358.894 808.116 358.894 460.775 572.881 246.788L482.586 173.482C222.36 454.175 249.437 859.277 482.586 1105.96Z" fill="#4E4E4E"/>
<path d="M1737.62 0.572266L1644.87 79.7803C1950.09 466.119 1954.02 845.209 1644.87 1215.88L1737.62 1291.57C2109.23 931.879 2065.95 350.559 1737.62 0.572266ZM1518.12 186.173L1427.82 270.033C1641.81 484.019 1641.81 831.36 1427.82 1045.35L1518.12 1118.65C1778.34 837.96 1751.27 432.858 1518.12 186.173Z" fill="#4E4E4E"/>
<path d="M1179.1 414.567C1176.64 414.567 1174.18 413.952 1172.02 412.722C1113 382.286 1061.96 369.373 1000.78 369.373C939.905 369.373 882.106 383.823 829.533 412.722C822.155 416.719 812.931 413.952 808.627 406.574C804.63 399.195 807.397 389.664 814.776 385.668C871.96 354.616 934.679 338.629 1000.78 338.629C1066.26 338.629 1123.45 353.079 1186.17 385.36C1193.85 389.357 1196.62 398.58 1192.62 405.959C1189.86 411.493 1184.63 414.567 1179.1 414.567ZM739.145 575.974C736.071 575.974 732.996 575.052 730.229 573.207C723.158 568.288 721.621 558.757 726.54 551.686C756.977 508.644 795.714 474.826 841.831 451.153C938.368 401.347 1061.96 401.04 1158.8 450.845C1204.92 474.518 1243.66 508.029 1274.1 550.764C1279.01 557.527 1277.48 567.366 1270.41 572.285C1263.33 577.204 1253.8 575.667 1248.88 568.595C1221.21 529.858 1186.17 499.421 1144.66 478.207C1056.43 433.014 943.594 433.014 855.666 478.515C813.854 500.036 778.805 530.78 751.135 569.518C748.676 573.822 744.064 575.974 739.145 575.974ZM931.297 947.056C927.3 947.056 923.303 945.519 920.536 942.445C893.789 915.697 879.339 898.48 858.74 861.28C837.527 823.465 826.459 777.348 826.459 727.85C826.459 636.54 904.549 562.139 1000.47 562.139C1096.39 562.139 1174.48 636.54 1174.48 727.85C1174.48 736.459 1167.72 743.222 1159.11 743.222C1150.5 743.222 1143.74 736.459 1143.74 727.85C1143.74 653.449 1079.48 592.883 1000.47 592.883C921.458 592.883 857.203 653.449 857.203 727.85C857.203 772.122 867.041 813.012 885.795 846.215C905.471 881.571 918.999 896.636 942.672 920.616C948.513 926.765 948.513 936.296 942.672 942.445C939.29 945.519 935.293 947.056 931.297 947.056ZM1151.73 890.18C1115.15 890.18 1082.87 880.956 1056.43 862.817C1010.62 831.766 983.254 781.345 983.254 727.85C983.254 719.242 990.018 712.478 998.627 712.478C1007.23 712.478 1014 719.242 1014 727.85C1014 771.2 1036.13 812.089 1073.64 837.3C1095.47 852.057 1120.99 859.128 1151.73 859.128C1159.11 859.128 1171.41 858.206 1183.71 856.053C1192.01 854.516 1200 860.05 1201.54 868.659C1203.08 876.96 1197.54 884.953 1188.93 886.49C1171.41 889.872 1156.04 890.18 1151.73 890.18ZM1089.94 953.513C1088.71 953.513 1087.17 953.205 1085.94 952.898C1037.06 939.37 1005.08 921.231 971.572 888.335C928.53 845.6 904.857 788.724 904.857 727.85C904.857 678.045 947.284 637.462 999.549 637.462C1051.81 637.462 1094.24 678.045 1094.24 727.85C1094.24 760.747 1122.83 787.494 1158.19 787.494C1193.55 787.494 1222.14 760.747 1222.14 727.85C1222.14 611.945 1122.22 517.867 999.241 517.867C911.928 517.867 831.993 566.443 796.022 641.767C784.032 666.669 777.883 695.876 777.883 727.85C777.883 751.831 780.035 789.646 798.481 838.837C801.556 846.83 797.559 855.746 789.566 858.513C781.572 861.587 772.656 857.283 769.889 849.597C754.825 809.322 747.446 769.355 747.446 727.85C747.446 690.957 754.517 657.446 768.352 628.239C809.242 542.463 899.938 486.816 999.241 486.816C1139.13 486.816 1252.88 594.728 1252.88 727.543C1252.88 777.348 1210.45 817.931 1158.19 817.931C1105.92 817.931 1063.5 777.348 1063.5 727.543C1063.5 694.647 1034.9 667.899 999.549 667.899C964.193 667.899 935.601 694.647 935.601 727.543C935.601 780.115 955.892 829.306 993.093 866.199C1022.3 895.099 1050.28 911.086 1093.63 923.076C1101.93 925.228 1106.54 933.836 1104.39 941.83C1102.85 948.901 1096.39 953.513 1089.94 953.513Z" fill="#02B7AC"/>
<path d="M1310.23 1426.87L1096.77 1327.35C1088.78 1324.27 1080.32 1322.51 1071.38 1322.51H1035.65V1058.29C1035.65 1021.74 1004.15 992.24 965.125 992.24C926.101 992.24 894.6 1021.74 894.6 1058.29V1531.24L733.332 1499.53C729.571 1499.09 726.28 1498.21 722.048 1498.21C707.473 1498.21 694.308 1503.94 684.905 1512.74L647.762 1547.97L880.025 1765.51C892.719 1777.4 910.586 1784.89 929.862 1784.89H1249.11C1284.37 1784.89 1311.64 1760.67 1316.81 1728.52L1352.07 1496.45C1352.54 1493.37 1353.01 1490.29 1353.01 1487.64C1353.01 1460.34 1335.15 1436.56 1310.23 1426.87Z" fill="#4E4E4E"/>
</svg>
